<svg xmlns="http://www.w3.org/2000/svg" viewBox="0 0 500 500"><g id="freepik--background-simple--inject-37"><path d="M382.37,111.15S336.58,70.2,272.16,79.44,157.4,138.62,115.54,178,67.26,272.17,98.35,311s71.38,16.68,128.1,37.91,68.6,35.5,127.78,22.39,97.44-85.45,82.82-156.47S382.37,111.15,382.37,111.15Z" style="fill:#407BFF"></path><path d="M382.37,111.15S336.58,70.2,272.16,79.44,157.4,138.62,115.54,178,67.26,272.17,98.35,311s71.38,16.68,128.1,37.91,68.6,35.5,127.78,22.39,97.44-85.45,82.82-156.47S382.37,111.15,382.37,111.15Z" style="fill:#fff;opacity:0.8"></path></g><g id="freepik--Clouds--inject-37"><path d="M390.39,242.31c-4.54-2.47-6.61-.41-8.26-2.47s4.55-7.44-7.85-12.81c0,0-.82-11.56-17.76-12s-12.39,11.57-16.93,14.46-5.78-1.65-10.33,1.24-2.48,8.67-6.19,9.5-8.68-3.72-13.22-.83-4.55,5.37-6.61,5.37-6.2-1.65-8.67,0-5.37,3.72-5.37,3.72H393.7S394.94,244.79,390.39,242.31Z" style="fill:#407BFF"></path><path d="M390.39,242.31c-4.54-2.47-6.61-.41-8.26-2.47s4.55-7.44-7.85-12.81c0,0-.82-11.56-17.76-12s-12.39,11.57-16.93,14.46-5.78-1.65-10.33,1.24-2.48,8.67-6.19,9.5-8.68-3.72-13.22-.83-4.55,5.37-6.61,5.37-6.2-1.65-8.67,0-5.37,3.72-5.37,3.72H393.7S394.94,244.79,390.39,242.31Z" style="fill:#fff;opacity:0.5"></path><path d="M363.51,97.83c-6.34-3.47-9.23-.58-11.54-3.47S358.32,84,341,76.47c0,0-1.15-16.16-24.82-16.74s-17.31,16.16-23.66,20.2-8.09-2.31-14.43,1.73-3.47,12.13-8.66,13.28S257.3,89.74,251,93.79s-6.35,7.5-9.24,7.5-8.66-2.31-12.12,0-7.51,5.19-7.51,5.19h146S369.86,101.29,363.51,97.83Z" style="fill:#407BFF"></path><path d="M363.51,97.83c-6.34-3.47-9.23-.58-11.54-3.47S358.32,84,341,76.47c0,0-1.15-16.16-24.82-16.74s-17.31,16.16-23.66,20.2-8.09-2.31-14.43,1.73-3.47,12.13-8.66,13.28S257.3,89.74,251,93.79s-6.35,7.5-9.24,7.5-8.66-2.31-12.12,0-7.51,5.19-7.51,5.19h146S369.86,101.29,363.51,97.83Z" style="fill:#fff;opacity:0.5"></path><path d="M196.72,171.62c-4.54-2.48-6.61-.41-8.26-2.48s4.54-7.43-7.85-12.8c0,0-.83-11.57-17.76-12s-12.39,11.57-16.94,14.46-5.78-1.65-10.32,1.24-2.48,8.67-6.2,9.5-8.67-3.72-13.22-.83-4.54,5.37-6.61,5.37-6.19-1.65-8.67,0-5.37,3.72-5.37,3.72H200S201.26,174.1,196.72,171.62Z" style="fill:#407BFF"></path><path d="M196.72,171.62c-4.54-2.48-6.61-.41-8.26-2.48s4.54-7.43-7.85-12.8c0,0-.83-11.57-17.76-12s-12.39,11.57-16.94,14.46-5.78-1.65-10.32,1.24-2.48,8.67-6.2,9.5-8.67-3.72-13.22-.83-4.54,5.37-6.61,5.37-6.19-1.65-8.67,0-5.37,3.72-5.37,3.72H200S201.26,174.1,196.72,171.62Z" style="fill:#fff;opacity:0.5"></path></g><g id="freepik--Trees--inject-37"><path d="M242.28,359.57l.78,0c1.57-.06,5-.17,5.94-.17,1.18,0,3.16,2.57,1.38,4.94s-3,5.14-5.53,5.73-2.18,2.18-4,4.15-6.72,2.38-9.29,1.78-.2-13.44.2-14S236.54,364.32,242.28,359.57Z" style="fill:#fff;stroke:#263238;stroke-linecap:round;stroke-linejoin:round"></path><path d="M244.85,370.05c2.57-.59,3.75-3.36,5.53-5.73a3.22,3.22,0,0,0,.46-3.26,13.35,13.35,0,0,1-3.82,6.22c-1.78,1.39-3.16.6-4.15,1.78s-2,3.56-7.12,3.56a19.2,19.2,0,0,1-5.33-.65c0,2.13.29,3.81,1.18,4,2.57.6,7.51.2,9.29-1.78S242.28,370.64,244.85,370.05Z" style="fill:#fff;stroke:#263238;stroke-linecap:round;stroke-linejoin:round"></path><path d="M276.08,366.89s-.59,7.12-.2,8.5,4.35,2.77,6.53,2.37,6.13-3.16,6.13-3.16,8.7-3.36,11.86-5.34,4.15-4.35,1.78-4.94-10.28-2.18-12.65-2.77-2.38,1.58-7.52,2.77S276.08,366.89,276.08,366.89Z" style="fill:#fff;stroke:#263238;stroke-linecap:round;stroke-linejoin:round"></path><path d="M301,366.89a113.9,113.9,0,0,1-14.43,6.92,14.53,14.53,0,0,1-10.81.1,7.73,7.73,0,0,0,.13,1.48c.4,1.38,4.35,2.77,6.53,2.37s6.13-3.16,6.13-3.16,8.7-3.36,11.86-5.34c2.7-1.69,3.81-3.66,2.6-4.57A6,6,0,0,1,301,366.89Z" style="fill:#fff;stroke:#263238;stroke-linecap:round;stroke-linejoin:round"></path><path d="M241.25,227.39S239,240,238.2,247.07s-2.68,24.64-2.68,33.05S235,303.8,235,303.8s-.77,6.12-2.1,11.65-1.91,16.05-1.72,21.21.19,19.48.19,19.48a39.78,39.78,0,0,0,0,5c.19,1.91.57,4.2,2.48,4.2s5.35,0,6.69-1.14a9.36,9.36,0,0,0,2.86-6.31c.19-2.86,1-12.61,1.15-14.9s6.88-30.56,7.64-36.48,1.15-9.17,1.15-9.17l7.06-37.06,2.11.38s12,45.08,12,48.14-1.34,17,.19,24.83S276,368.18,276,368.18a5.91,5.91,0,0,0,2.86,1.72c1.72.38,6.69-.77,8.6-3.82s2.67-8.6,2.67-10.13,1.72-32.85,1.72-40.88-.76-17.76-.76-18.53-1.91-37.05-2.48-40.3-7.07-29.61-7.07-29.61S261.69,232.55,241.25,227.39Z" style="fill:#263238;stroke:#263238;stroke-linecap:round;stroke-linejoin:round"></path><path d="M224.44,199.31s-2.48,6.31-2.86,9.55,1.72,9.17,3.63,10.32,8.21-1.34,9.17-2.87,5.34-11.46,5.34-11.46A30.7,30.7,0,0,1,224.44,199.31Z" style="fill:#fff;stroke:#263238;stroke-linecap:round;stroke-linejoin:round"></path><polygon points="284.87 203.17 277.34 236.56 282.25 236.56 289.46 202.51 284.87 203.17" style="fill:#263238;stroke:#263238;stroke-linecap:round;stroke-linejoin:round"></polygon><path d="M291,176.86s3.6-.65,4.58,0,1,3.93,1,5.24-1,4.91-.65,6.55,5.9,9.38,8.19,14.3-.65,12.76-3.27,16-7.87-8.4-9.51-12.33-4.25-28.16-4.25-28.16Z" style="fill:#fff;stroke:#263238;stroke-linecap:round;stroke-linejoin:round"></path><path d="M298,197.24s5.2,8.89,5.39,11.76-1.15,9-2.48,11.08-4.77.29-7.26-1.05a11,11,0,0,1-5.16-5.45c-1.15-2.48-4.24-8.7-4.24-8.7S292.66,202.59,298,197.24Z" style="fill:#fff;stroke:#263238;stroke-linecap:round;stroke-linejoin:round"></path><path d="M251.18,160a26.11,26.11,0,0,0-6.87,2.68c-3.25,1.91-8.41,5.73-10.13,8.78s-6.87,16.24-9.36,21.21-3.24,6.68-3.24,6.68,3,4.4,7.06,6.12,11.08,2.1,11.08,2.1,1,19.48,1.53,22.35,7.07,4.58,16.62,5,22.92-3.05,24.64-5-.57-22.35-.57-22.35a59.76,59.76,0,0,0,9.17-2.1c3.82-1.34,8.79-7.84,8.79-7.84s-6.88-16.81-8.22-19.67-.38-4-5.73-7.83A62.24,62.24,0,0,0,275.06,164s-8-3.82-14.71-4.58S251.18,160,251.18,160Z" style="fill:#fff;stroke:#263238;stroke-linecap:round;stroke-linejoin:round"></path><path d="M278.88,134s2.1,1.15,2.1,2.3-2.29,3.63-2.29,3.63a23.3,23.3,0,0,1,0,5.34c-.38,1.91,1.53,4,0,5.35s-6.11,1.34-6.11,1.34l-1.34,8.41-17.19-2.3-.57-5.35s-4.59-3.82-6.12-8-1.33-5.35-1-8,3.25-8.22,9-9.55a31.26,31.26,0,0,1,15.28.19C274.68,128.44,278.88,134,278.88,134Z" style="fill:#fff;stroke:#263238;stroke-linecap:round;stroke-linejoin:round"></path><path d="M271.22,147.21l0-.05Z" style="fill:#fff;stroke:#263238;stroke-linecap:round;stroke-linejoin:round"></path><path d="M266.28,151.56a10,10,0,0,0,4.94-4.35c-.07.14-.37.53-1.31.53-1.15,0-3.83-2.1-4.59-4s1.15-4.21,2.48-4.21,3.25,2.68,4.78,1.72,1.34-5.15,1.34-5.15a28.59,28.59,0,0,1,1.72-5.63,13.53,13.53,0,0,0-5-3.16,31.26,31.26,0,0,0-15.28-.19c-5.73,1.33-8.6,6.87-9,9.55s-.57,3.82,1,8,6.12,8,6.12,8C256.72,152.9,262.65,153.09,266.28,151.56Z" style="fill:#263238;stroke:#263238;stroke-linecap:round;stroke-linejoin:round"></path><path d="M245.65,162.06s3.43-5.54,5.15-6.3,14.14-.76,16.62-.38,6.88,3.44,7.64,5.16,1.34,3.05,1.34,3.05v1.15s-8.21-3.82-16-3.82A101,101,0,0,0,245.65,162.06Z" style="fill:#fff;stroke:#263238;stroke-linecap:round;stroke-linejoin:round"></path><path d="M276.4,164.74a87.19,87.19,0,0,1-5.46,9.94,46.68,46.68,0,0,0-5,11.26l6,.62s4.17-11,6.67-14.59a41.65,41.65,0,0,1,3.34-4.38S279.57,164.59,276.4,164.74Z" style="fill:#263238;stroke:#263238;stroke-linecap:round;stroke-linejoin:round"></path><path d="M245.65,162.06s-1,7-.56,10.75a66.65,66.65,0,0,1,0,9.58l-4.38,1.46s-1.25-12.09-.83-14.8.83-4.58.83-4.58S243.49,162,245.65,162.06Z" style="fill:#263238;stroke:#263238;stroke-linecap:round;stroke-linejoin:round"></path><path d="M236.75,226.17s-2.91,1-4,6,1.88,10.43,7.92,12.93,15.85,3.75,25,4.17,16.67-.42,20-6.26,2.08-12.09-1.88-13.13-8.34,1.25-23.55-.21A178.18,178.18,0,0,1,236.75,226.17Z" style="fill:#407BFF;stroke:#263238;stroke-linecap:round;stroke-linejoin:round"></path><path d="M273.53,233.38c-3.85,4.49-4.81,15.4,2.89,15.4h.39c4-.8,7.09-2.49,8.93-5.72,2.59-4.54,2.4-9.33.33-11.72l-3.1-2.09A12.33,12.33,0,0,0,273.53,233.38Z" style="fill:#407BFF;stroke:#263238;stroke-linecap:round;stroke-linejoin:round"></path><path d="M278.18,239.26s-.15,3.19,3.63,2a5.11,5.11,0,0,0,3.2-4.38,5.78,5.78,0,0,0,.05-.71c.05-1.6-.51-3-1.65-3.33-2.62-.73-9,4.06-9,7.55s4.07,4.65,7.7,2.32,4.65-4.79,4.36-10.6" style="fill:none;stroke:#263238;stroke-linecap:round;stroke-linejoin:round"></path><path d="M237.59,179.27s16.67,1.46,25.64,1.66,13.34-.62,16,2.3,6,34.18,7.5,39.81-1,7.3-7.29,9.59-16.26,2.29-27.73,0-16.47-4-17.72-9-.41-21.06-.41-30S232.79,179.48,237.59,179.27Z" style="fill:#407BFF;stroke:#263238;stroke-linecap:round;stroke-linejoin:round"></path><path d="M277,211.84a32.4,32.4,0,0,0,7.7-1.79c-1.6-11-3.63-24.92-5.39-26.82-2.71-2.92-7.09-2.09-16-2.3s-25.64-1.66-25.64-1.66c-4.8.21-4,5.42-4,14.38,0,3.71-.15,8.62-.22,13.47C234.63,207.83,248.32,215.25,277,211.84Z" style="fill:#407BFF;stroke:#263238;stroke-linecap:round;stroke-linejoin:round"></path><path d="M237.12,206.11a39.42,39.42,0,0,1-.24,9.07,54.56,54.56,0,0,0-.71,7.63l4.05,1.67s.72-6.44,1.2-9.3a66.19,66.19,0,0,0,.48-8.12Z" style="fill:#263238;stroke:#263238;stroke-linecap:round;stroke-linejoin:round"></path><path d="M268.14,209s-.24,4.3-.71,7.4-1.2,10.44-1.2,10.44H271s1.67-7.34,1.67-10.2.24-7.88.24-7.88Z" style="fill:#263238;stroke:#263238;stroke-linecap:round;stroke-linejoin:round"></path><path d="M286.78,223c-1.46-5.63-4.79-36.89-7.5-39.81a6.09,6.09,0,0,0-1.43-1.12c-1.74.56-4.3,1.94-3.16,5.08,1.67,4.58,3.34,27.1,2.5,34.18s-5.42,10.43-1.25,12.09l.23.09a24.17,24.17,0,0,0,3.32-.92C285.74,230.34,288.24,228.67,286.78,223Z" style="fill:#407BFF;stroke:#263238;stroke-linecap:round;stroke-linejoin:round"></path><line x1="260.35" y1="260.25" x2="252.18" y2="258.06" style="fill:none;stroke:#fff;stroke-linecap:round;stroke-linejoin:round"></line><path d="M242.57,124.63s2.31,13,2.31,14.51.38,1.91,6.5,2.29,14.51.77,19.29-1.71,13.18-8.22,14.9-12,.57-4.39-4-4.39h-5.73s-1.34-5.54-5-7.26-9.36-5.16-15.47-2.48S244.7,117.54,242.57,124.63Z" style="fill:#407BFF;stroke:#263238;stroke-linecap:round;stroke-linejoin:round"></path><path d="M274.49,136.66a3.8,3.8,0,0,0-.94,1.42c4.71-2.85,10.61-7.27,12-10.4,1.72-3.82.57-4.39-4-4.39h-5.73s1.72,5.54,1.72,7.45S276.78,134.37,274.49,136.66Z" style="fill:#263238;stroke:#263238;stroke-linecap:round;stroke-linejoin:round"></path><path d="M248.37,139.64s-1.6-5.59,1.33-6.12,6.13,6.66,6.13,6.66A20.14,20.14,0,0,1,248.37,139.64Z" style="fill:#263238;stroke:#263238;stroke-linecap:round;stroke-linejoin:round"></path><path d="M328.33,393.47h37.6c-.72-4.6-3.68-3.79-4.07-10.92-.2-3.59,3.12-8,2.84-12.74-.24-3.89-4.07-7.87-4.37-12.31-.26-4,3-8.46,2.69-12.78-.3-4.08-4.19-8-4.53-12.25s2.87-8.63,2.49-12.82-4.33-8-4.75-12.16,2.67-8.82,2.19-12.88c-.5-4.31-4.57-8-5.12-12-.61-4.43,2.27-9.15,1.6-13-.83-4.68-5.18-8.06-6.1-11.51-1.71-6.43-1.49-12.63-3.51-13s-2.64,5.64-4.27,12.43c-.82,3.41-5.08,6.87-5.78,11.55-.57,3.79,2.44,8.4,1.95,12.8-.44,3.95-4.41,7.74-4.79,12-.37,4,2.85,8.48,2.54,12.69s-4.16,8-4.42,12.17,3.05,8.53,2.82,12.64-4,8.19-4.2,12.24c-.21,4.29,3.18,8.61,3,12.59-.18,4.4-3.91,8.44-4,12.29-.17,4.68,3.26,9,3.16,12.56-.23,7.72-3.77,6.12-3.9,12.34Z" style="fill:#407BFF"></path><path d="M328.33,393.47h37.6c-.72-4.6-3.68-3.79-4.07-10.92-.2-3.59,3.12-8,2.84-12.74-.24-3.89-4.07-7.87-4.37-12.31-.26-4,3-8.46,2.69-12.78-.3-4.08-4.19-8-4.53-12.25s2.87-8.63,2.49-12.82-4.33-8-4.75-12.16,2.67-8.82,2.19-12.88c-.5-4.31-4.57-8-5.12-12-.61-4.43,2.27-9.15,1.6-13-.83-4.68-5.18-8.06-6.1-11.51-1.71-6.43-1.49-12.63-3.51-13s-2.64,5.64-4.27,12.43c-.82,3.41-5.08,6.87-5.78,11.55-.57,3.79,2.44,8.4,1.95,12.8-.44,3.95-4.41,7.74-4.79,12-.37,4,2.85,8.48,2.54,12.69s-4.16,8-4.42,12.17,3.05,8.53,2.82,12.64-4,8.19-4.2,12.24c-.21,4.29,3.18,8.61,3,12.59-.18,4.4-3.91,8.44-4,12.29-.17,4.68,3.26,9,3.16,12.56-.23,7.72-3.77,6.12-3.9,12.34Z" style="fill:#fff;opacity:0.5"></path><line x1="344.47" y1="257.45" x2="344.47" y2="391.73" style="fill:none;stroke:#263238;stroke-miterlimit:10"></line><polyline points="350.34 271.53 344.22 276.82 339.21 270.14" style="fill:none;stroke:#263238;stroke-miterlimit:10"></polyline><polyline points="350.34 294.9 344.22 300.19 339.21 293.51" style="fill:none;stroke:#263238;stroke-miterlimit:10"></polyline><polyline points="350.34 316.88 344.22 322.17 339.21 315.49" style="fill:none;stroke:#263238;stroke-miterlimit:10"></polyline><polyline points="350.34 343.04 344.22 348.33 339.21 341.65" style="fill:none;stroke:#263238;stroke-miterlimit:10"></polyline><polyline points="350.34 369.47 344.22 374.76 339.21 368.08" style="fill:none;stroke:#263238;stroke-miterlimit:10"></polyline><path d="M113,370.5h48.78c-.94-6-4.77-4.92-5.28-14.17-.25-4.65,4.06-10.42,3.68-16.53-.3-5-5.27-10.21-5.66-16-.35-5.2,3.89-11,3.48-16.58-.39-5.3-5.42-10.39-5.87-15.89s3.72-11.21,3.23-16.64-5.62-10.43-6.16-15.78c-.56-5.51,3.46-11.44,2.85-16.71-.66-5.59-5.93-10.42-6.65-15.57-.8-5.74,2.94-11.87,2.07-16.83-1.08-6.07-6.72-10.46-7.91-14.93-2.22-8.35-1.94-16.39-4.56-16.91-2.79-.56-3.42,7.32-5.54,16.13-1.06,4.43-6.59,8.91-7.5,15-.73,4.91,3.17,10.89,2.53,16.61-.57,5.12-5.71,10-6.21,15.6-.47,5.23,3.7,11,3.29,16.47-.4,5.32-5.39,10.39-5.74,15.79s4,11.06,3.67,16.39-5.2,10.63-5.45,15.89c-.27,5.56,4.12,11.17,3.91,16.33-.24,5.72-5.07,11-5.25,16-.22,6.06,4.24,11.66,4.1,16.28-.3,10-4.89,7.95-5,16Z" style="fill:#407BFF"></path><line x1="133.97" y1="194.02" x2="133.97" y2="368.24" style="fill:none;stroke:#263238;stroke-miterlimit:10"></line><polyline points="141.59 212.29 133.64 219.15 127.14 210.48" style="fill:none;stroke:#263238;stroke-miterlimit:10"></polyline><polyline points="141.59 242.61 133.64 249.47 127.14 240.81" style="fill:none;stroke:#263238;stroke-miterlimit:10"></polyline><polyline points="141.59 271.13 133.64 277.99 127.14 269.33" style="fill:none;stroke:#263238;stroke-miterlimit:10"></polyline><polyline points="141.59 305.07 133.64 311.93 127.14 303.26" style="fill:none;stroke:#263238;stroke-miterlimit:10"></polyline><polyline points="141.59 339.36 133.64 346.22 127.14 337.56" style="fill:none;stroke:#263238;stroke-miterlimit:10"></polyline><path d="M83.49,378.13h36.12c-.69-4.42-3.53-3.64-3.91-10.49-.19-3.45,3-7.71,2.73-12.24-.23-3.73-3.91-7.56-4.19-11.83-.26-3.85,2.88-8.12,2.57-12.27-.28-3.93-4-7.69-4.34-11.77s2.75-8.3,2.39-12.32-4.16-7.72-4.56-11.68,2.56-8.47,2.1-12.37c-.48-4.14-4.39-7.72-4.92-11.53-.59-4.25,2.18-8.79,1.53-12.46-.79-4.49-5-7.74-5.85-11.06-1.64-6.17-1.44-12.13-3.37-12.52s-2.54,5.43-4.11,11.95c-.79,3.28-4.88,6.6-5.55,11.09-.54,3.65,2.35,8.07,1.88,12.3-.43,3.79-4.24,7.43-4.61,11.55-.35,3.88,2.74,8.15,2.44,12.2s-4,7.69-4.25,11.69,2.94,8.19,2.72,12.14-3.85,7.87-4,11.76c-.2,4.12,3,8.27,2.89,12.09-.17,4.23-3.75,8.11-3.88,11.81-.16,4.5,3.14,8.64,3,12.06-.22,7.43-3.62,5.89-3.74,11.86Z" style="fill:#407BFF"></path><path d="M83.49,378.13h36.12c-.69-4.42-3.53-3.64-3.91-10.49-.19-3.45,3-7.71,2.73-12.24-.23-3.73-3.91-7.56-4.19-11.83-.26-3.85,2.88-8.12,2.57-12.27-.28-3.93-4-7.69-4.34-11.77s2.75-8.3,2.39-12.32-4.16-7.72-4.56-11.68,2.56-8.47,2.1-12.37c-.48-4.14-4.39-7.72-4.92-11.53-.59-4.25,2.18-8.79,1.53-12.46-.79-4.49-5-7.74-5.85-11.06-1.64-6.17-1.44-12.13-3.37-12.52s-2.54,5.43-4.11,11.95c-.79,3.28-4.88,6.6-5.55,11.09-.54,3.65,2.35,8.07,1.88,12.3-.43,3.79-4.24,7.43-4.61,11.55-.35,3.88,2.74,8.15,2.44,12.2s-4,7.69-4.25,11.69,2.94,8.19,2.72,12.14-3.85,7.87-4,11.76c-.2,4.12,3,8.27,2.89,12.09-.17,4.23-3.75,8.11-3.88,11.81-.16,4.5,3.14,8.64,3,12.06-.22,7.43-3.62,5.89-3.74,11.86Z" style="fill:#fff;opacity:0.5"></path><line x1="99" y1="247.47" x2="99" y2="376.46" style="fill:none;stroke:#263238;stroke-miterlimit:10"></line><polyline points="104.64 260.99 98.76 266.07 93.95 259.65" style="fill:none;stroke:#263238;stroke-miterlimit:10"></polyline><polyline points="104.64 283.44 98.76 288.52 93.95 282.1" style="fill:none;stroke:#263238;stroke-miterlimit:10"></polyline><polyline points="104.64 304.56 98.76 309.64 93.95 303.22" style="fill:none;stroke:#263238;stroke-miterlimit:10"></polyline><polyline points="104.64 329.68 98.76 334.76 93.95 328.35" style="fill:none;stroke:#263238;stroke-miterlimit:10"></polyline><polyline points="104.64 355.07 98.76 360.15 93.95 353.74" style="fill:none;stroke:#263238;stroke-miterlimit:10"></polyline><path d="M361.3,404.07h48.79c-.94-6-4.77-4.92-5.28-14.16-.26-4.66,4.05-10.42,3.68-16.54-.31-5-5.28-10.2-5.66-16-.35-5.2,3.89-11,3.48-16.58-.39-5.3-5.43-10.38-5.87-15.89s3.72-11.21,3.23-16.64-5.62-10.42-6.16-15.78,3.46-11.43,2.84-16.7c-.65-5.6-5.93-10.43-6.64-15.58-.8-5.74,2.94-11.87,2.06-16.82-1.07-6.07-6.72-10.46-7.91-14.94-2.21-8.34-1.93-16.38-4.55-16.91-2.79-.55-3.43,7.33-5.54,16.14-1.07,4.42-6.59,8.91-7.5,15-.73,4.92,3.17,10.9,2.53,16.61-.57,5.12-5.72,10-6.22,15.6-.47,5.24,3.71,11,3.3,16.48-.4,5.31-5.39,10.38-5.74,15.78s4,11.06,3.67,16.4-5.2,10.62-5.46,15.88c-.26,5.56,4.13,11.18,3.91,16.34-.23,5.71-5.07,11-5.24,16-.22,6.07,4.24,11.67,4.1,16.29-.3,10-4.89,7.95-5.05,16Z" style="fill:#407BFF"></path><line x1="382.25" y1="227.6" x2="382.25" y2="401.82" style="fill:none;stroke:#263238;stroke-miterlimit:10"></line><polyline points="389.86 245.86 381.92 252.72 375.42 244.06" style="fill:none;stroke:#263238;stroke-miterlimit:10"></polyline><polyline points="389.86 276.19 381.92 283.05 375.42 274.38" style="fill:none;stroke:#263238;stroke-miterlimit:10"></polyline><polyline points="389.86 304.71 381.92 311.56 375.42 302.9" style="fill:none;stroke:#263238;stroke-miterlimit:10"></polyline><polyline points="389.86 338.64 381.92 345.5 375.42 336.84" style="fill:none;stroke:#263238;stroke-miterlimit:10"></polyline><polyline points="389.86 372.94 381.92 379.8 375.42 371.13" style="fill:none;stroke:#263238;stroke-miterlimit:10"></polyline></g><g id="freepik--Sign--inject-37"><rect x="171.07" y="264.53" width="6.12" height="110.21" transform="translate(10.72 -5.61) rotate(1.91)" style="fill:#263238;stroke:#263238;stroke-linecap:round;stroke-linejoin:round"></rect><polygon points="203.77 233.77 200.44 234.57 200.44 245.59 204.13 246.67 203.77 233.77" style="fill:#407BFF;stroke:#263238;stroke-linecap:round;stroke-linejoin:round"></polygon><polygon points="139.22 227.69 139.38 265.04 201.32 271.46 200.73 283.28 223.54 263.71 203.77 233.77 203.72 245.6 139.22 227.69" style="fill:#263238;stroke:#263238;stroke-linecap:round;stroke-linejoin:round"></polygon><polygon points="139.22 227.69 134.22 228.25 134.85 266.68 139.38 265.04 139.22 227.69" style="fill:#407BFF;stroke:#263238;stroke-linecap:round;stroke-linejoin:round"></polygon><polygon points="134.85 266.68 198.5 272.98 201.32 271.46 139.38 265.04 134.85 266.68" style="fill:#407BFF;stroke:#263238;stroke-linecap:round;stroke-linejoin:round"></polygon><polygon points="198.5 272.98 198.34 283.41 200.73 283.28 201.32 271.46 198.5 272.98" style="fill:#407BFF;stroke:#263238;stroke-linecap:round;stroke-linejoin:round"></polygon></g><g id="freepik--Floor--inject-37"><path d="M76.05,379.89s86.18-42.51,217.22-20.81C395.94,376.08,429.74,420,429.74,420" style="fill:#fff;stroke:#263238;stroke-linecap:round;stroke-linejoin:round"></path><path d="M223.45,361.05l-16.15-6.53c-79.8,4-129.8,29-129.8,29L71,385a124.54,124.54,0,0,0-15.28,8.39l23.72.38,40.65-2.65L90.92,401.7l28.27-6.19L166,393.74l-27.39-7.06L181,382.26l-39.76.88,32-6.53,41.38-6.72-15-.89,3.71-1.23Z" style="fill:#407BFF"></path><path d="M324,367.5l9,5.5-22-.5,10,5.5-6,2,14.5,7-14,2L329,400l-74.5.5,21,8-8,3.5,51,8L374,434l-23.5-13S404,435.5,406,436.5s13.5,5.5,15,6-18-15-18-15l20,5L403,410l9,1-6.5-5.5,13,5.5S382.5,382,324,367.5Z" style="fill:#407BFF"></path></g></svg>