<svg width="360" height="120" viewBox="0 0 360 120" fill="none" xmlns="http://www.w3.org/2000/svg">
<path d="M141.511 70.8866C140.35 72.1771 138.651 73.2163 136.415 74.0043C134.179 74.7927 131.728 75.187 129.062 75.187C124.962 75.187 121.687 73.9328 119.235 71.4244C116.784 68.916 115.473 65.4254 115.301 60.953L115.279 58.2441C115.279 55.1623 115.824 52.4746 116.913 50.1812C118.003 47.8733 119.558 46.1031 121.579 44.8707C123.615 43.6232 125.965 43 128.631 43C132.53 43 135.555 43.8957 137.705 45.6877C139.869 47.4651 141.131 50.1237 141.489 53.6646H134.222C133.964 51.9156 133.405 50.6687 132.545 49.9232C131.685 49.1777 130.466 48.8053 128.89 48.8053C126.997 48.8053 125.535 49.6077 124.503 51.2132C123.471 52.8186 122.948 55.112 122.934 58.0934V59.9858C122.934 63.1107 123.464 65.4611 124.525 67.038C125.6 68.6005 127.284 69.3817 129.578 69.3817C131.541 69.3817 133.003 68.9445 133.964 68.07V63.2107H128.717V58.0292H141.511V70.8866Z" fill="#1937D6"/>
<path d="M176.672 60.2977C176.672 63.3511 176.106 66.0527 174.974 68.4037C173.842 70.7546 172.229 72.5677 170.136 73.8437C168.058 75.1051 165.685 75.7356 163.019 75.7356C160.353 75.7356 157.988 75.1264 155.924 73.9079C153.86 72.6755 152.247 70.9193 151.086 68.6404C149.939 66.361 149.337 63.7454 149.28 60.7925V59.0295C149.28 55.9616 149.839 53.26 150.957 50.9236C152.09 48.5727 153.702 46.7595 155.795 45.4836C157.902 44.2081 160.296 43.5699 162.976 43.5699C165.628 43.5699 167.993 44.2009 170.072 45.4623C172.15 46.7233 173.763 48.5225 174.909 50.8589C176.07 53.1808 176.658 55.8472 176.672 58.8575V60.2977ZM168.997 58.9866C168.997 55.8757 168.474 53.518 167.427 51.9126C166.395 50.2926 164.911 49.4829 162.976 49.4829C159.192 49.4829 157.192 52.3208 156.977 57.9971L156.956 60.2977C156.956 63.3651 157.465 65.7233 158.482 67.3717C159.5 69.0201 161.013 69.8444 163.019 69.8444C164.926 69.8444 166.395 69.0346 167.427 67.4147C168.459 65.7948 168.982 63.4656 168.997 60.4267V58.9866Z" fill="#1937D6"/>
<path d="M243.023 62.3347H221.457V66.0651V69.7955H243.023V75.6008H221.457V44.2952H243.07V50.122H221.457V56.7229H243.023V62.3347Z" fill="#1937D6"/>
<path d="M199.022 66.7753L205.258 43.9843H213.686L203.151 75.29H194.894L184.444 43.9843H192.808L199.022 66.7753Z" fill="#1937D6"/>
<path d="M262.47 64.083H258.388V75.1346H250.84V43.8288H263.159C266.873 43.8288 269.775 44.653 271.867 46.3014C273.96 47.9499 275.007 50.279 275.007 53.2894C275.007 55.4683 274.561 57.2743 273.675 58.7077C272.8 60.1412 271.422 61.3021 269.547 62.1911L276.084 74.8118V75.1346H267.998L262.47 64.083ZM258.388 58.256H263.159C264.594 58.256 265.666 57.8835 266.387 57.138C267.117 56.3785 267.48 55.3248 267.48 53.9774C267.48 52.6299 267.117 51.5767 266.387 50.8168C265.656 50.0428 264.579 49.6558 263.159 49.6558H258.388V58.256Z" fill="#1937D6"/>
<path d="M92.4402 74.9794H84.915V43.6736H92.4402V74.9794Z" fill="#1937D6"/>
<path d="M106.565 67.7101L105.977 74.9364L99.3388 68.298L106.565 67.7101Z" fill="#C4C4C4"/>
<path d="M55.0629 75.031L58.6751 63.3559L62.0293 52.4978L65.4049 63.3559L69.0386 75.031H77.1445L65.5769 43.7253H58.4815L47 75.031H55.0629Z" fill="#1937D6"/>
<path d="M62.0564 73.2547L57.3624 67.7293H66.7504L62.0564 73.2547Z" fill="#C4C4C4"/>
<path d="M291.918 75.4454L295.531 63.7703L298.885 52.9122L302.26 63.7703L305.894 75.4454H314L302.432 44.1398H295.337L283.855 75.4454H291.918Z" fill="#1937D6"/>
<path d="M298.912 73.6688L294.218 68.1433H303.606L298.912 73.6688Z" fill="#C4C4C4"/>
</svg>
